<svg width="17" height="17" viewBox="0 0 17 17" fill="none" xmlns="http://www.w3.org/2000/svg">
<path d="M8.5 0.5C4.08125 0.5 0.5 4.08125 0.5 8.5C0.5 12.9187 4.08125 16.5 8.5 16.5C12.9187 16.5 16.5 12.9187 16.5 8.5C16.5 4.08125 12.9187 0.5 8.5 0.5ZM8.5 15C4.91563 15 2 12.0841 2 8.5C2 4.91594 4.91563 2 8.5 2C12.0844 2 15 4.91594 15 8.5C15 12.0841 12.0844 15 8.5 15ZM8.5 11C7.9375 11 7.5 11.4375 7.5 12C7.5 12.5625 7.90938 13 8.5 13C9.03438 13 9.5 12.5625 9.5 12C9.5 11.4375 9.03438 11 8.5 11ZM9.53438 4.5H7.9375C6.71875 4.5 5.75 5.46875 5.75 6.6875C5.75 7.09375 6.09375 7.4375 6.5 7.4375C6.90625 7.4375 7.25 7.09375 7.25 6.6875C7.25 6.3125 7.53438 6 7.90938 6H9.50625C9.90938 6 10.25 6.3125 10.25 6.6875C10.25 6.9375 10.125 7.12813 9.90625 7.25313L8.125 8.34375C7.875 8.5 7.75 8.75 7.75 9V9.5C7.75 9.90625 8.09375 10.25 8.5 10.25C8.90625 10.25 9.25 9.90625 9.25 9.5V9.4375L10.6594 8.5625C11.3156 8.15625 11.7219 7.4375 11.7219 6.6875C11.75 5.46875 10.7812 4.5 9.53438 4.5Z" fill="#0C3898"/>
</svg>
